<?xml version="1.0" encoding="UTF-8"?>
<svg xmlns="http://www.w3.org/2000/svg" xmlns:xlink="http://www.w3.org/1999/xlink" width="375pt" height="374.999991pt" viewBox="0 0 375 374.999991" version="1.2">
<defs>
<clipPath id="clip1">
  <path d="M 72 100 L 304 100 L 304 272 L 72 272 Z M 72 100 "/>
</clipPath>
<clipPath id="clip2">
  <path d="M 305.160156 93.65625 L 312.03125 272.023438 L 69.960938 281.351562 L 63.089844 102.980469 Z M 305.160156 93.65625 "/>
</clipPath>
<clipPath id="clip3">
  <path d="M 305.152344 93.507812 L 312.023438 271.875 L 69.953125 281.199219 L 63.082031 102.832031 Z M 305.152344 93.507812 "/>
</clipPath>
<clipPath id="clip4">
  <path d="M 66 94 L 310 94 L 310 278 L 66 278 Z M 66 94 "/>
</clipPath>
<clipPath id="clip5">
  <path d="M 305.160156 93.65625 L 312.03125 272.023438 L 69.960938 281.351562 L 63.089844 102.980469 Z M 305.160156 93.65625 "/>
</clipPath>
<clipPath id="clip6">
  <path d="M 305.152344 93.507812 L 312.023438 271.875 L 69.953125 281.199219 L 63.082031 102.832031 Z M 305.152344 93.507812 "/>
</clipPath>
</defs>
<g id="surface1">
<g clip-path="url(#clip1)" clip-rule="nonzero">
<g clip-path="url(#clip2)" clip-rule="nonzero">
<g clip-path="url(#clip3)" clip-rule="nonzero">
<path style=" stroke:none;fill-rule:nonzero;fill:rgb(100%,100%,100%);fill-opacity:1;" d="M 72.714844 191.808594 C 71.863281 169.632812 79.703125 148.453125 94.789062 132.167969 C 109.878906 115.886719 130.40625 106.453125 152.59375 105.597656 C 174.78125 104.746094 195.972656 112.574219 212.269531 127.644531 L 257.589844 169.554688 C 260.140625 171.929688 263.457031 173.152344 266.957031 173.015625 C 268.664062 172.949219 270.320312 172.550781 271.882812 171.832031 C 276.710938 169.617188 279.6875 164.78125 279.484375 159.496094 L 277.648438 111.785156 C 277.414062 105.726562 282.152344 100.609375 288.207031 100.375 C 294.273438 100.140625 299.394531 104.882812 299.628906 110.9375 L 303.699219 216.597656 C 303.8125 219.5625 302.765625 222.375 300.742188 224.511719 C 298.78125 226.625 296.0625 227.871094 293.132812 227.984375 C 290.191406 228.097656 287.386719 227.058594 285.230469 225.0625 L 258.378906 200.226562 C 255.820312 197.859375 252.492188 196.628906 249.007812 196.765625 C 247.882812 196.808594 246.738281 197.003906 245.617188 197.351562 C 241.207031 198.722656 237.8125 202.390625 236.792969 206.917969 C 233.558594 221.207031 226.640625 234.375 216.789062 245 C 201.726562 261.277344 181.199219 270.714844 158.980469 271.570312 C 136.769531 272.425781 115.570312 264.59375 99.296875 249.519531 C 83.015625 234.433594 73.570312 213.933594 72.714844 191.808594 Z M 72.714844 191.808594 "/>
</g>
</g>
</g>
<g clip-path="url(#clip4)" clip-rule="nonzero">
<g clip-path="url(#clip5)" clip-rule="nonzero">
<g clip-path="url(#clip6)" clip-rule="nonzero">
<path style=" stroke:none;fill-rule:nonzero;fill:rgb(15.289307%,15.689087%,18.818665%);fill-opacity:1;" d="M 297.523438 216.835938 C 297.558594 217.734375 297.367188 219.085938 296.253906 220.273438 C 295.125 221.484375 293.820312 221.777344 292.90625 221.8125 C 291.988281 221.847656 290.660156 221.660156 289.449219 220.535156 L 262.59375 195.695312 C 258.800781 192.1875 253.824219 190.398438 248.78125 190.59375 C 247.121094 190.65625 245.449219 190.941406 243.816406 191.445312 C 237.253906 193.484375 232.277344 198.867188 230.765625 205.566406 C 227.773438 218.773438 221.394531 230.953125 212.257812 240.804688 C 198.304688 255.890625 179.292969 264.609375 158.753906 265.398438 C 138.207031 266.191406 118.59375 258.960938 103.515625 244.996094 C 88.441406 231.035156 79.691406 212.074219 78.902344 191.574219 C 78.113281 171.035156 85.375 151.429688 99.332031 136.371094 C 113.292969 121.3125 132.289062 112.570312 152.835938 111.78125 C 173.378906 110.988281 193 118.242188 208.074219 132.183594 L 253.386719 174.085938 C 257.203125 177.636719 262.199219 179.378906 267.195312 179.1875 C 269.667969 179.089844 272.148438 178.511719 274.480469 177.429688 C 281.558594 174.183594 285.964844 167 285.667969 159.246094 L 283.828125 111.546875 C 283.726562 108.914062 285.800781 106.652344 288.445312 106.550781 C 291.105469 106.449219 293.34375 108.542969 293.445312 111.175781 L 297.515625 216.835938 M 309.886719 216.359375 L 305.816406 110.699219 C 305.449219 101.230469 297.445312 93.828125 287.96875 94.195312 C 278.5 94.558594 271.101562 102.554688 271.464844 112.023438 L 273.304688 159.726562 C 273.410156 162.503906 271.851562 165.042969 269.324219 166.199219 L 269.285156 166.222656 C 268.472656 166.597656 267.609375 166.808594 266.726562 166.839844 C 264.882812 166.910156 263.148438 166.273438 261.828125 165.046875 L 216.484375 123.113281 C 198.96875 106.910156 176.195312 98.5 152.359375 99.417969 C 128.523438 100.335938 106.464844 110.472656 90.253906 127.964844 C 74.042969 145.460938 65.621094 168.21875 66.539062 192.046875 C 67.457031 215.816406 77.601562 237.84375 95.105469 254.054688 C 112.59375 270.253906 135.367188 278.667969 159.234375 277.75 C 183.101562 276.832031 205.160156 266.6875 221.351562 249.191406 C 231.9375 237.777344 239.371094 223.628906 242.839844 208.289062 C 243.375 205.902344 245.144531 203.984375 247.464844 203.253906 C 248.074219 203.070312 248.675781 202.96875 249.265625 202.945312 C 251.097656 202.875 252.851562 203.523438 254.203125 204.769531 L 281.058594 229.605469 C 284.414062 232.71875 288.800781 234.339844 293.394531 234.164062 C 297.957031 233.988281 302.179688 232.058594 305.296875 228.722656 C 308.429688 225.367188 310.0625 220.980469 309.886719 216.359375 Z M 309.886719 216.359375 "/>
</g>
</g>
</g>
</g>
</svg>
